# Blender 3.1.0
# www.blender.org
mtllib FISH.mtl
o Sphere
v -0.439114 1.775342 -3.116573
v -0.439114 1.068235 -2.220802
v 0.267993 2.546441 -0.058219
v 0.560886 1.775342 -0.058219
v 0.267993 1.068235 -0.058219
v -0.439114 3.228297 -0.058219
v -0.439114 2.546441 2.104363
v -0.439114 1.775342 3.000135
v -0.439114 1.068235 2.104363
v -0.439114 0.480501 -0.058219
v -0.439114 2.546441 -2.220802
v -0.439114 0.575351 -5.193408
v -0.439114 3.033311 -5.028262
v -0.139827 1.776080 -3.129404
v 0.130210 1.345491 -5.206239
v 0.130210 2.534215 -5.041093
v 0.010273 2.114480 1.132096
v 0.010273 1.875900 1.230919
v 0.248853 2.353060 1.469499
v 0.347675 2.114480 1.469499
v 0.248853 1.875900 1.469499
v 0.010273 2.451882 1.469499
v 0.010273 2.353060 1.708079
v 0.010273 2.114480 1.806902
v 0.010273 1.875900 1.708079
v 0.010273 1.777077 1.469499
v -0.228307 2.353060 1.469499
v -0.327130 2.114480 1.469499
v -0.228307 1.875900 1.469499
v 0.010273 2.353059 1.230919
v 0.022482 0.284041 -0.239562
v -0.069355 1.068235 0.973509
v 0.083805 1.775342 1.400865
v -0.069355 2.546441 0.973509
v 0.098333 0.931971 0.785143
v 0.421030 0.692768 -0.008180
v 0.175519 0.224558 -0.189523
v -1.146221 2.546441 -0.058219
v -1.439114 1.775342 -0.058219
v -1.146221 1.068235 -0.058219
v -0.738400 1.776080 -3.129404
v -1.008438 1.345491 -5.206239
v -1.008438 2.534215 -5.041093
v -0.888501 2.114480 1.132096
v -0.888501 1.875900 1.230919
v -1.127080 2.353060 1.469499
v -1.225903 2.114480 1.469499
v -1.127080 1.875900 1.469499
v -0.888501 2.451882 1.469499
v -0.888501 2.353060 1.708079
v -0.888501 2.114480 1.806902
v -0.888501 1.875900 1.708079
v -0.888501 1.777077 1.469499
v -0.649921 2.353060 1.469499
v -0.551098 2.114480 1.469499
v -0.649921 1.875900 1.469499
v -0.888501 2.353059 1.230919
v -0.900710 0.284041 -0.239562
v -0.808873 1.068235 0.973509
v -0.962032 1.775342 1.400865
v -0.808873 2.546441 0.973509
v -0.976560 0.931971 0.785143
v -1.299258 0.692768 -0.008180
v -1.053747 0.224558 -0.189523
vn 0.5386 -0.6480 -1.6472
vn 0.6829 0.2594 -2.0886
vn 0.6786 -0.2811 -2.0754
vn 0.5702 0.5913 -1.7440
vn 0.6786 -0.2811 2.0754
vn 0.5702 0.5913 1.7440
vn 0.5386 -0.6480 1.6472
vn 0.6829 0.2594 2.0886
vn 1.0000 -0.0000 -0.0000
vn -0.9253 0.0172 -1.1587
vn -0.2823 -0.4780 -2.5439
vn 0.0144 -0.0296 3.0567
vn -0.4674 0.5188 -2.1892
vn 0.2486 -0.6002 -2.3252
vn 0.3082 0.1277 -2.8831
vn 0.3082 -0.1277 -2.8831
vn 0.2486 0.6002 -2.3252
vn 0.2486 -0.6001 2.3252
vn 0.3082 0.1277 2.8831
vn 0.3082 -0.1277 2.8831
vn 0.2486 0.6002 2.3252
vn -0.2486 -0.6002 2.3252
vn -0.3082 0.1277 2.8831
vn -0.3082 -0.1277 2.8831
vn -0.2486 0.6002 2.3252
vn -0.2486 -0.6002 -2.3252
vn -0.3082 0.1277 -2.8831
vn -0.3082 -0.1277 -2.8831
vn -0.2486 0.6002 -2.3252
vn -0.1443 -0.4411 2.7090
vn 0.4295 -0.3316 2.5691
vn 0.1532 0.0335 -3.0205
vn 0.6923 0.3797 1.8766
vn -0.6818 0.2650 -2.0853
vn -0.5386 -0.6480 -1.6472
vn -0.6829 0.2594 -2.0886
vn -0.6786 -0.2811 -2.0754
vn -0.5702 0.5913 -1.7440
vn -0.6786 -0.2811 2.0754
vn -0.5702 0.5913 1.7440
vn -0.5386 -0.6480 1.6472
vn -0.6829 0.2594 2.0886
vn 0.9253 0.0172 -1.1587
vn 0.2823 -0.4780 -2.5439
vn -0.0144 -0.0296 3.0567
vn 0.4674 0.5188 -2.1892
vn -0.2486 -0.6001 2.3252
vn 0.2486 -0.6002 2.3252
vn 0.1443 -0.4411 2.7090
vn -0.4295 -0.3316 2.5691
vn -0.1532 0.0335 -3.0205
vn -0.6923 0.3797 1.8766
vn 0.6818 0.2650 -2.0853
vt 0.750000 0.500000
vt 0.000000 0.000000
vt 0.750000 0.250000
vt 0.500000 0.750000
vt 0.500000 0.500000
vt 0.500000 0.250000
vt 0.000000 0.000000
vt 0.625000 1.000000
vt 0.375000 1.000000
vt 0.250000 0.750000
vt 0.250000 0.500000
vt 0.250000 0.250000
vt 0.625000 0.000000
vt 0.375000 0.000000
vt 0.750000 0.750000
vt 0.000000 0.000000
vt 0.000000 0.000000
vt 0.000000 0.000000
vt 0.000000 0.000000
vt 0.000000 0.000000
vt 0.750000 0.500000
vt 0.750000 0.250000
vt 0.500000 0.750000
vt 0.500000 0.500000
vt 0.500000 0.250000
vt 0.625000 1.000000
vt 0.375000 1.000000
vt 0.125000 1.000000
vt 0.875000 1.000000
vt 0.250000 0.750000
vt 0.250000 0.500000
vt 0.250000 0.250000
vt 0.625000 0.000000
vt 0.375000 0.000000
vt 0.125000 0.000000
vt 0.875000 0.000000
vt 0.000000 0.750000
vt 1.000000 0.750000
vt 0.000000 0.500000
vt 1.000000 0.500000
vt 0.000000 0.250000
vt 1.000000 0.250000
vt 0.750000 0.750000
vt 0.000000 0.000000
vt 0.380730 0.250000
vt 0.000000 0.000000
vt 0.380730 0.500000
vt 0.380730 0.750000
vt 0.000000 0.000000
vt 0.380730 0.250000
vt 0.000000 0.000000
vt 0.500000 0.250000
vt 0.000000 0.000000
vt 0.500000 0.750000
vt 0.500000 0.500000
vt 0.500000 0.250000
vt 0.000000 0.000000
vt 0.000000 0.000000
vt 0.000000 0.000000
vt 0.000000 0.000000
vt 0.750000 0.500000
vt 0.750000 0.250000
vt 0.500000 0.750000
vt 0.500000 0.500000
vt 0.500000 0.250000
vt 0.625000 1.000000
vt 0.375000 1.000000
vt 0.125000 1.000000
vt 0.875000 1.000000
vt 0.250000 0.750000
vt 0.250000 0.500000
vt 0.250000 0.250000
vt 0.625000 0.000000
vt 0.375000 0.000000
vt 0.125000 0.000000
vt 0.875000 0.000000
vt 0.000000 0.750000
vt 1.000000 0.750000
vt 0.000000 0.500000
vt 1.000000 0.500000
vt 0.000000 0.250000
vt 1.000000 0.250000
vt 0.750000 0.750000
vt 0.000000 0.000000
vt 0.380730 0.250000
vt 0.000000 0.000000
vt 0.380730 0.500000
vt 0.380730 0.750000
vt 0.000000 0.000000
vt 0.380730 0.250000
vt 0.000000 0.000000
vt 0.500000 0.250000
vt 0.000000 0.000000
s 0
f 10/13/1 2/3/1 5/6/1
f 1/1/2 11/15/2 3/4/2 4/5/2
f 2/3/3 1/1/3 4/5/3 5/6/3
f 11/15/4 6/8/4 3/4/4
f 32/45/5 33/47/5 8/11/5 9/12/5
f 3/4/6 6/9/6 7/10/6 34/48/6
f 10/14/7 5/6/7 32/45/7 9/12/7
f 33/47/8 34/48/8 7/10/8 8/11/8
f 12/16/9 13/17/9 1/2/9
f 15/19/10 14/18/10 16/20/10
f 1/2/11 13/17/11 16/20/11 14/18/11
f 13/17/12 12/16/12 15/19/12 16/20/12
f 12/16/13 1/2/13 14/18/13 15/19/13
f 26/33/14 18/22/14 21/25/14
f 17/21/15 30/43/15 19/23/15 20/24/15
f 18/22/16 17/21/16 20/24/16 21/25/16
f 30/43/17 22/26/17 19/23/17
f 26/34/18 21/25/18 25/32/18
f 20/24/19 19/23/19 23/30/19 24/31/19
f 21/25/20 20/24/20 24/31/20 25/32/20
f 19/23/21 22/27/21 23/30/21
f 26/35/22 25/32/22 29/41/22
f 24/31/23 23/30/23 27/37/23 28/39/23
f 25/32/24 24/31/24 28/39/24 29/41/24
f 23/30/25 22/28/25 27/37/25
f 26/36/26 29/42/26 18/22/26
f 28/40/27 27/38/27 30/43/27 17/21/27
f 29/42/28 28/40/28 17/21/28 18/22/28
f 27/38/29 22/29/29 30/43/29
f 4/5/8 3/4/8 34/48/8 33/47/8
f 5/6/5 4/5/5 33/47/5 32/45/5
f 32/46/30 31/44/30 37/53/30 35/49/30
f 35/49/31 37/53/31 36/51/31
f 31/44/32 5/7/32 36/51/32 37/53/32
f 5/6/33 32/45/33 35/50/33 36/52/33
f 31/44/34 32/46/34 5/7/34
f 10/13/35 40/56/35 2/3/35
f 1/1/36 39/55/36 38/54/36 11/15/36
f 2/3/37 40/56/37 39/55/37 1/1/37
f 11/15/38 38/54/38 6/8/38
f 59/85/39 9/12/39 8/11/39 60/87/39
f 38/54/40 61/88/40 7/10/40 6/9/40
f 10/14/41 9/12/41 59/85/41 40/56/41
f 60/87/42 8/11/42 7/10/42 61/88/42
f 42/59/43 43/60/43 41/58/43
f 1/2/44 41/58/44 43/60/44 13/17/44
f 13/17/45 43/60/45 42/59/45 12/16/45
f 12/16/46 42/59/46 41/58/46 1/2/46
f 53/73/26 48/65/26 45/62/26
f 44/61/27 47/64/27 46/63/27 57/83/27
f 45/62/28 48/65/28 47/64/28 44/61/28
f 57/83/29 46/63/29 49/66/29
f 53/74/47 52/72/47 48/65/47
f 47/64/23 51/71/23 50/70/23 46/63/23
f 48/65/24 52/72/24 51/71/24 47/64/24
f 46/63/25 50/70/25 49/67/25
f 53/75/48 56/81/48 52/72/48
f 51/71/19 55/79/19 54/77/19 50/70/19
f 52/72/20 56/81/20 55/79/20 51/71/20
f 50/70/21 54/77/21 49/68/21
f 53/76/14 45/62/14 56/82/14
f 55/80/15 44/61/15 57/83/15 54/78/15
f 56/82/16 45/62/16 44/61/16 55/80/16
f 54/78/17 57/83/17 49/69/17
f 39/55/42 60/87/42 61/88/42 38/54/42
f 40/56/39 59/85/39 60/87/39 39/55/39
f 59/86/49 62/89/49 64/93/49 58/84/49
f 62/89/50 63/91/50 64/93/50
f 58/84/51 64/93/51 63/91/51 40/57/51
f 40/56/52 63/92/52 62/90/52 59/85/52
f 58/84/53 40/57/53 59/86/53
