# Blender v2.93.1 OBJ File: 'SmallBoat.blend'
# www.blender.org
mtllib SmallBoat1.mtl
o Cube
v -0.815600 0.714158 0.952561
v -0.502682 -0.522973 1.000000
v -0.815600 0.714158 -1.198806
v -0.502682 -0.522973 -1.260377
v -0.050000 0.714158 -0.086603
v -0.100000 0.714158 0.000000
v -0.050000 0.714158 0.086603
v -0.035346 2.863173 -0.052513
v -0.065665 2.863173 0.000000
v -0.035346 2.863173 0.052513
v -0.890500 0.000000 -1.260377
v -0.890500 0.000000 1.000000
v -1.011623 0.714158 1.000000
v -1.011623 0.714158 -1.421583
v 0.005602 0.714158 -2.245895
v -1.011623 0.891721 1.000000
v -1.011623 0.891721 -1.421583
v -0.815600 0.891721 0.952561
v -0.815600 0.891721 -1.198806
v 0.005602 0.891721 -2.729055
v -0.957436 0.394667 -1.349465
v -0.957436 0.394667 1.000000
v 0.000000 -0.522973 1.957301
v 0.000000 0.714158 -2.873043
v 0.815600 0.714158 0.952561
v 0.502682 -0.522973 1.000000
v 0.000000 0.714158 2.967673
v 0.000000 -0.522973 -2.046304
v 0.815600 0.714158 -1.198806
v 0.502682 -0.522973 -1.260377
v 0.050000 0.714158 -0.086603
v 0.100000 0.714158 0.000000
v 0.050000 0.714158 0.086603
v 0.035346 2.863173 -0.052513
v 0.065665 2.863173 0.000000
v 0.035346 2.863173 0.052513
v 0.000000 0.714158 0.086603
v 0.000000 2.863173 0.062305
v 0.000000 0.714158 -0.086603
v 0.000000 2.863173 -0.062305
v 0.890500 0.000000 -1.260377
v 0.890500 0.000000 1.000000
v 0.000000 0.000000 2.462487
v 0.000000 0.000000 -2.474252
v 1.011623 0.714158 1.000000
v 1.011623 0.714158 -1.421583
v -0.005602 0.714158 -2.245895
v 0.000000 0.714158 2.377669
v 1.011623 0.891721 1.000000
v 1.011623 0.891721 -1.421583
v 0.000000 0.891721 2.967673
v 0.000000 0.891721 -2.873043
v 0.815600 0.891721 0.952561
v 0.815600 0.891721 -1.198806
v -0.005602 0.891721 -2.729055
v 0.000000 0.891721 2.782550
v 0.957436 0.394667 -1.349465
v 0.957436 0.394667 1.000000
v 0.000000 0.394667 2.741668
v 0.000000 0.394667 -2.694637
vt 0.000000 0.000000
vt 0.000000 0.000000
vt 0.000000 0.000000
vt 0.000000 0.000000
vt 0.000000 0.000000
vt 0.000000 0.000000
vt 0.000000 0.000000
vt 0.000000 0.000000
vt 0.000000 0.000000
vt 0.500000 0.000000
vt 0.569079 0.000000
vt 0.569079 0.125000
vt 0.500000 0.125000
vt 0.497432 0.625000
vt 0.565091 0.625000
vt 0.569079 0.750000
vt 0.500000 0.750000
vt 0.569079 1.000000
vt 0.500000 1.000000
vt 0.000000 0.000000
vt 0.000000 0.000000
vt 0.000000 0.000000
vt 0.000000 0.000000
vt 0.000000 0.000000
vt 0.000000 0.000000
vt 0.000000 0.000000
vt 0.000000 0.000000
vt 0.000000 0.000000
vt 0.500000 0.000000
vt 0.569079 0.000000
vt 0.500000 0.750000
vt 0.569079 0.750000
vt 0.500000 1.000000
vt 0.569079 1.000000
vt 0.125000 0.625000
vt 0.375000 0.625000
vt 0.375000 0.750000
vt 0.125000 0.750000
vt 0.375000 0.000000
vt 0.375000 0.125000
vt 0.375000 1.000000
vt 0.625000 0.750000
vt 0.619863 0.625000
vt 0.619863 0.625000
vt 0.625000 0.750000
vt 0.651745 0.725779
vt 0.853168 0.725779
vt 0.853168 0.725779
vt 0.651745 0.725779
vt 0.625000 0.125000
vt 0.625000 0.000000
vt 0.625000 0.000000
vt 0.625000 0.125000
vt 0.875000 0.750000
vt 0.878649 0.627729
vt 0.884468 0.625000
vt 0.627010 0.627729
vt 0.878649 0.627729
vt 0.627010 0.627729
vt 0.625000 1.000000
vt 0.625000 1.000000
vt 0.125000 0.750000
vt 0.375000 0.750000
vt 0.375000 0.000000
vt 0.375000 1.000000
vt 0.625000 0.750000
vt 0.625000 0.750000
vt 0.651745 0.725779
vt 0.651745 0.725779
vt 0.853168 0.725779
vt 0.853168 0.725779
vt 0.625000 0.000000
vt 0.625000 0.000000
vt 0.875000 0.750000
vt 0.878649 0.627729
vt 0.878649 0.627729
vt 0.625000 1.000000
vt 0.625000 1.000000
vt 0.000000 0.000000
vt 0.000000 0.000000
vt 0.000000 0.000000
vt 0.000000 0.000000
vt 0.000000 0.000000
vt 0.000000 0.000000
vt 0.000000 0.000000
vt 0.000000 0.000000
vn 0.0000 -1.0000 0.0000
vn 0.9997 -0.0198 -0.0145
vn -0.7769 -0.2858 -0.5610
vn -0.8404 -0.2427 0.4847
vn -0.9859 -0.1672 0.0000
vn -0.9997 -0.0198 -0.0145
vn -1.0000 0.0000 0.0000
vn 0.7769 -0.2858 -0.5610
vn 0.8404 -0.2427 0.4847
vn 0.9859 -0.1672 0.0000
vn -0.7225 -0.4739 -0.5034
vn -0.7554 -0.4901 0.4349
vn -0.8032 -0.5957 0.0000
vn -0.8893 0.0000 0.4572
vn 1.0000 0.0000 0.0000
vn -0.8204 0.0000 -0.5718
vn 0.0000 1.0000 0.0000
vn 0.6808 0.5902 0.4338
vn 0.7962 0.4549 -0.3990
vn 0.7225 -0.4739 -0.5034
vn 0.7554 -0.4901 0.4349
vn 0.8032 -0.5957 0.0000
vn 0.8893 0.0000 0.4572
vn 0.8204 0.0000 -0.5718
vn -0.6808 0.5902 0.4338
vn -0.7962 0.4549 -0.3990
vn -0.8587 -0.2341 0.4558
vn -0.7842 -0.2830 -0.5522
vn 0.8587 -0.2341 0.4558
vn 0.7842 -0.2830 -0.5522
vn -0.8659 0.0138 -0.5000
vn -0.8659 0.0138 0.5000
vn -0.1140 0.0139 -0.9934
vn -0.1140 0.0139 0.9934
vn 0.8659 0.0138 -0.5000
vn 0.8659 0.0138 0.5000
vn 0.1140 0.0139 -0.9934
vn 0.1140 0.0139 0.9934
usemtl bluu
s off
f 5/1/1 39/2/1 37/3/1 7/4/1 6/5/1
f 15/6/2 24/7/2 52/8/2 20/9/2
f 11/10/3 21/11/3 60/12/3 44/13/3
f 43/14/4 59/15/4 22/16/4 12/17/4
f 12/17/5 22/16/5 21/18/5 11/19/5
f 31/20/1 32/21/1 33/22/1 37/3/1 39/2/1
f 47/23/6 55/24/6 52/8/6 24/7/6
f 27/25/7 51/26/7 56/27/7 48/28/7
f 41/29/8 44/13/8 60/12/8 57/30/8
f 43/14/9 42/31/9 58/32/9 59/15/9
f 42/31/10 41/33/10 57/34/10 58/32/10
usemtl yelloh
f 28/35/1 23/36/1 2/37/1 4/38/1
f 4/39/11 11/10/11 44/13/11 28/40/11
f 23/36/12 43/14/12 12/17/12 2/37/12
f 2/37/13 12/17/13 11/19/13 4/41/13
f 13/42/14 27/43/14 51/44/14 16/45/14
f 1/46/15 3/47/15 19/48/15 18/49/15
f 24/50/16 14/51/16 17/52/16 52/53/16
f 18/49/17 19/48/17 17/54/17 16/45/17
f 19/48/17 20/55/17 52/56/17 17/54/17
f 51/44/17 56/57/17 18/49/17 16/45/17
f 3/47/18 15/58/18 20/55/18 19/48/18
f 48/59/19 1/46/19 18/49/19 56/57/19
f 14/60/7 13/42/7 16/45/7 17/61/7
f 28/35/1 30/62/1 26/63/1 23/36/1
f 30/64/20 28/40/20 44/13/20 41/29/20
f 23/36/21 26/63/21 42/31/21 43/14/21
f 26/63/22 30/65/22 41/33/22 42/31/22
f 45/66/23 49/67/23 51/44/23 27/43/23
f 25/68/7 53/69/7 54/70/7 29/71/7
f 24/50/24 52/53/24 50/72/24 46/73/24
f 53/69/17 49/67/17 50/74/17 54/70/17
f 54/70/17 50/74/17 52/56/17 55/75/17
f 51/44/17 49/67/17 53/69/17 56/57/17
f 29/71/25 54/70/25 55/75/25 47/76/25
f 48/59/26 56/57/26 53/69/26 25/68/26
f 46/77/15 50/78/15 49/67/15 45/66/15
usemtl redd
f 22/16/5 13/42/5 14/60/5 21/18/5
f 59/15/27 27/43/27 13/42/27 22/16/27
f 21/11/28 14/51/28 24/50/28 60/12/28
f 58/32/10 57/34/10 46/77/10 45/66/10
f 59/15/29 58/32/29 45/66/29 27/43/29
f 57/30/30 60/12/30 24/50/30 46/73/30
usemtl brawn
f 5/1/31 6/5/31 9/79/31 8/80/31
f 6/5/32 7/4/32 10/81/32 9/79/32
f 39/2/33 5/1/33 8/80/33 40/82/33
f 7/4/34 37/3/34 38/83/34 10/81/34
f 3/47/1 15/58/1 39/2/1 5/1/1
f 1/46/17 48/59/17 37/3/17 7/4/17
f 7/4/1 1/46/1 6/5/1
f 3/47/1 5/1/1 6/5/1
f 1/46/17 6/5/17 3/47/17
f 8/80/17 9/79/17 10/81/17 38/83/17 40/82/17
f 31/20/35 34/84/35 35/85/35 32/21/35
f 32/21/36 35/85/36 36/86/36 33/22/36
f 39/2/37 40/82/37 34/84/37 31/20/37
f 33/22/38 36/86/38 38/83/38 37/3/38
f 29/71/1 31/20/1 39/2/1 47/76/1
f 25/68/17 33/22/17 37/3/17 48/59/17
f 33/22/1 32/21/1 25/68/1
f 29/71/1 32/21/1 31/20/1
f 25/68/17 29/71/17 32/21/17
f 34/84/17 40/82/17 38/83/17 36/86/17 35/85/17
